<svg width="94" height="67" viewBox="0 0 94 67" fill="none" xmlns="http://www.w3.org/2000/svg">
<g clip-path="url(#clip0_49_169)">
<path d="M1.11731e-05 7.13212C0.537126 6.36737 1.27045 6.1548 2.19752 6.15725C21.6244 6.17924 41.0488 6.17191 60.4757 6.17435C62.2146 6.17435 62.6462 6.60437 62.6487 8.32689C62.6511 11.188 62.6487 14.0466 62.6487 17.0079C63.0656 17.0299 63.4164 17.0666 63.7671 17.0666C68.3853 17.0714 73.0059 17.091 77.6241 17.0543C78.7205 17.0446 79.4342 17.4233 80.0301 18.3566C84.4644 25.2907 88.9526 32.193 93.3844 39.1295C93.7376 39.6817 93.9608 40.422 93.9681 41.0744C94.0147 46.4081 93.9951 51.7418 93.9927 57.073C93.9927 58.7443 93.4948 59.2305 91.7878 59.2305C89.3745 59.2329 86.9611 59.2305 84.5159 59.2305C84.3467 59.7924 84.2118 60.3202 84.0278 60.8259C82.6348 64.6644 78.9167 67.1614 74.8675 66.9879C70.6735 66.8096 67.1762 64.0438 66.1191 60.0245C65.9768 59.4821 65.8272 59.2109 65.1822 59.2134C54.0156 59.2354 42.8515 59.228 31.6849 59.2305C31.5647 59.2305 31.4445 59.2451 31.2851 59.2573C29.8871 64.139 26.819 67.1174 21.5484 66.9391C16.6726 66.7729 13.8571 63.8483 12.5842 59.2305C9.14077 59.2305 5.68509 59.206 2.23186 59.2451C1.25818 59.2573 0.50279 59.0081 -0.00244141 58.1554C1.11731e-05 41.1501 1.11731e-05 24.1423 1.11731e-05 7.13212ZM3.19327 9.32864C3.19327 22.884 3.19327 36.3368 3.19327 49.902C5.80772 49.902 8.3584 49.902 10.9213 49.902C10.9213 50.977 10.9213 51.9348 10.9213 53.0001C8.3118 53.0001 5.75867 53.0001 3.20308 53.0001C3.20308 54.0922 3.20308 55.0744 3.20308 56.1128C4.83404 56.1128 6.39143 56.1128 7.94637 56.1128C9.5013 56.1128 11.0538 56.1128 12.5768 56.1128C14.4285 50.9013 17.325 48.4165 21.6367 48.2992C23.584 48.2479 25.3916 48.739 27.0274 49.7969C29.323 51.2849 30.6573 53.4399 31.2263 56.0469C40.6736 56.0469 50.0522 56.0469 59.4432 56.0469C59.4432 55.0182 59.4432 54.0556 59.4432 52.9659C50.5796 52.9659 41.7625 52.9659 32.9455 52.9659C32.9455 51.8786 32.9455 50.9159 32.9455 49.858C41.8018 49.858 50.5992 49.858 59.4554 49.858C59.4554 38.3818 59.4554 27.001 59.4554 15.5175C41.7257 15.5175 24.0328 15.5175 6.32767 15.5175C6.32767 14.4254 6.32767 13.4407 6.32767 12.3828C24.0696 12.3828 41.7429 12.3828 59.4505 12.3828C59.4505 11.3224 59.4505 10.3402 59.4505 9.3262C40.6711 9.32864 21.958 9.32864 3.19327 9.32864ZM86.1861 49.7896C87.8048 49.7896 89.3254 49.7896 90.8681 49.7896C90.8681 47.0116 90.8681 44.3899 90.8681 41.7707C90.8681 40.5246 90.8239 40.4806 89.578 40.4806C82.3576 40.4806 75.1372 40.4831 67.9193 40.4782C66.2761 40.4782 65.7905 39.992 65.788 38.3501C65.7831 34.0523 65.7831 29.7546 65.788 25.4593C65.7905 23.8271 66.2834 23.336 67.9267 23.3336C71.3848 23.3287 74.8405 23.3312 78.2986 23.3312C78.6223 23.3312 78.9461 23.3312 79.4709 23.3312C78.8774 22.3978 78.3599 21.6575 77.9209 20.8756C77.6291 20.3552 77.271 20.1818 76.6725 20.1866C72.329 20.2135 67.9855 20.1989 63.6395 20.2013C63.3698 20.2013 63.1 20.2306 62.8008 20.2477C62.8008 32.2174 62.8008 44.1358 62.8008 56.064C63.8823 56.064 64.8781 56.064 65.8518 56.064C67.7672 50.8402 70.6098 48.3138 74.919 48.3285C80.1307 48.3456 83.194 51.2091 84.5453 56.064C86.6423 56.064 88.7098 56.064 90.8043 56.064C90.8043 55.0231 90.8043 54.0385 90.8043 52.9439C89.2273 52.9439 87.7165 52.9439 86.1886 52.9439C86.1861 51.8908 86.1861 50.955 86.1861 49.7896ZM88.4204 37.3239C88.3493 37.1309 88.3321 37.0405 88.2855 36.9696C86.1248 33.615 83.9763 30.253 81.7764 26.9252C81.5973 26.654 81.0798 26.483 80.7169 26.4781C77.1116 26.4464 73.5038 26.4586 69.8985 26.461C69.6042 26.461 69.3074 26.4855 69.0058 26.4977C69.0058 30.1553 69.0058 33.7225 69.0058 37.3239C75.5027 37.3239 81.9137 37.3239 88.4204 37.3239ZM75.1789 63.8825C78.6199 63.8947 81.4404 61.1191 81.4698 57.6961C81.4992 54.3023 78.6763 51.4461 75.2574 51.4095C71.7919 51.3753 68.9298 54.2046 68.9347 57.6619C68.942 61.102 71.7232 63.8727 75.1789 63.8825ZM21.8844 63.8825C25.3376 63.9069 28.1385 61.1778 28.1998 57.7278C28.2611 54.3048 25.3891 51.4095 21.9334 51.4095C18.5121 51.4095 15.6818 54.2168 15.6597 57.6326C15.6377 61.0434 18.441 63.8581 21.8844 63.8825Z" fill="black"/>
<path d="M0 0C0.9982 0 1.99395 0 3.06082 0C3.06082 0.957771 3.06082 1.93998 3.06082 3.11031C2.04545 3.11031 1.02273 3.11031 0 3.11031C0 2.07191 0 1.03596 0 0Z" fill="black"/>
<path d="M28.2096 0.00488281C28.2096 0.889355 28.2439 1.7103 28.185 2.52147C28.1703 2.70717 27.8613 2.92462 27.6406 3.02968C27.4664 3.11275 27.2212 3.04923 27.0053 3.04923C20.4937 3.04923 13.9797 3.04923 7.46809 3.04923C7.10756 3.04923 6.74458 3.04923 6.32028 3.04923C6.32028 2.00594 6.32028 1.05061 6.32028 0.00488281C13.5627 0.00488281 20.815 0.00488281 28.2096 0.00488281Z" fill="black"/>
<path d="M76.7142 56.1885C76.7142 57.2 76.7142 58.1602 76.7142 59.1766C75.6915 59.1766 74.708 59.1766 73.6755 59.1766C73.6755 58.1798 73.6755 57.222 73.6755 56.1885C74.6541 56.1885 75.6375 56.1885 76.7142 56.1885Z" fill="black"/>
<path d="M23.4565 56.1833C23.4565 57.2095 23.4565 58.1673 23.4565 59.1813C22.4534 59.1813 21.492 59.1813 20.4496 59.1813C20.4496 58.2162 20.4496 57.234 20.4496 56.1833C21.411 56.1833 22.3945 56.1833 23.4565 56.1833Z" fill="black"/>
</g>
<defs>
<clipPath id="clip0_49_169">
<rect width="94" height="67" fill="white"/>
</clipPath>
</defs>
</svg>
